<svg xmlns="http://www.w3.org/2000/svg" width="40.969" height="51" viewBox="0 0 40.969 51">
  <defs>
    <style>
      .cls-1 {
        fill: #3699f3;
        stroke: #fff;
        stroke-width: 1px;
        fill-rule: evenodd;
      }
    </style>
  </defs>
  <path id="pin" class="cls-1" d="M335.014,2547.3c0-10.67-8.953-19.32-20-19.32s-20,8.65-20,19.32a18.8,18.8,0,0,0,.456,4.13H295.46a43.951,43.951,0,0,0,17.511,25.89,3.523,3.523,0,0,0,3.772.23c0.217-.15.432-0.31,0.648-0.46a43.936,43.936,0,0,0,17.125-25.42l-0.015-.01A18.557,18.557,0,0,0,335.014,2547.3Zm-20-8.85a8.855,8.855,0,1,1-9.161,8.85A9.016,9.016,0,0,1,315.014,2538.45Z" transform="translate(-294.531 -2527.5)"/>
</svg>
